<svg width="256" height="256" viewBox="0 0 256 256" fill="none" xmlns="http://www.w3.org/2000/svg">
<path d="M214 78L214 178L128 228V128L214 78Z" fill="#4A90D9"/>
<path d="M128 128V27L41 77.5L128 128Z" fill="#4A90D9"/>
<path d="M44.5038 63.3947C35.518 68.5778 30 78.1264 30 88.4927V167.507C30 177.874 35.518 187.422 44.5038 192.605L112.996 232.113C121.982 237.296 133.018 237.296 142.004 232.113L210.496 192.605C219.482 187.422 225 177.874 225 167.507V88.4927C225 78.1264 219.482 68.5778 210.496 63.3947L142.004 23.8874C133.018 18.7042 121.982 18.7042 112.996 23.8874L44.5038 63.3947ZM131.386 42.2604L199.879 81.7677C202.273 83.1486 203.765 85.7309 203.765 88.4927V167.507C203.765 170.269 202.273 172.851 199.879 174.232L131.386 213.74C128.992 215.121 126.008 215.121 123.614 213.74L55.1214 174.232C52.7273 172.851 51.2351 170.269 51.2351 167.507V88.4927C51.2351 85.7309 52.7273 83.1486 55.1214 81.7677L123.614 42.2604C126.008 40.8795 128.992 40.8795 131.386 42.2604Z" fill="#4A90D9"/>
</svg>
