<svg width="16" height="16" viewBox="0 0 16 16" fill="none" xmlns="http://www.w3.org/2000/svg">
<g clip-path="url(#clip0_2402_549)">
<path d="M5.98141 0L5.80382 2.10743C5.1294 2.35496 4.50237 2.71437 3.94955 3.17029L2.01802 2.26743L0 5.73257L1.75395 6.93943C1.69144 7.2896 1.65904 7.6444 1.65708 8C1.65726 8.357 1.68812 8.71334 1.74933 9.06514L0 10.2674L2.01802 13.7314L3.94494 12.832C4.49965 13.2859 5.12825 13.643 5.80382 13.888L5.98141 16H10.0174L10.195 13.8926C10.8695 13.645 11.4965 13.2856 12.0493 12.8297L13.982 13.7326L16 10.2674L14.2449 9.06057C14.3074 8.7104 14.3398 8.3556 14.3418 8C14.3416 7.643 14.3107 7.28666 14.2495 6.93486L16 5.73257L13.982 2.26743L12.0539 3.168C11.4992 2.71407 10.8706 2.35697 10.195 2.112L10.0174 0H5.98141ZM7.99942 5.71429C8.61109 5.71429 9.19771 5.9551 9.63023 6.38376C10.0627 6.81241 10.3057 7.39379 10.3057 8C10.3057 8.60621 10.0627 9.18759 9.63023 9.61624C9.19771 10.0449 8.61109 10.2857 7.99942 10.2857C7.38775 10.2857 6.80114 10.0449 6.36862 9.61624C5.9361 9.18759 5.69312 8.60621 5.69312 8C5.69312 7.39379 5.9361 6.81241 6.36862 6.38376C6.80114 5.9551 7.38775 5.71429 7.99942 5.71429Z" fill="#232323"/>
</g>
<defs>
<clipPath id="clip0_2402_549">
<rect width="16" height="16" fill="white"/>
</clipPath>
</defs>
</svg>
