<svg width="256" height="256" viewBox="0 0 256 256" fill="none" xmlns="http://www.w3.org/2000/svg">
<path fill-rule="evenodd" clip-rule="evenodd" d="M80.3087 130.56L139.227 232.621L112.15 232.875L96.4205 205.455L80.5786 232.728L67.1253 232.723L60.2349 220.818L82.8048 182.01L66.783 154.129L80.3087 130.56Z" fill="#5277C3"/>
<path fill-rule="evenodd" clip-rule="evenodd" d="M101.575 88.52L42.6469 190.575L28.8886 167.253L44.7701 139.921L13.2297 139.838L6.50781 128.184L13.372 116.265L58.2664 116.406L74.4011 88.5906L101.575 88.52Z" fill="#7EBAE4"/>
<path fill-rule="evenodd" clip-rule="evenodd" d="M106.095 170.101L223.941 170.107L210.623 193.683L179.012 193.595L194.71 220.951L187.979 232.599L174.224 232.615L151.9 193.664L119.743 193.599L106.095 170.101Z" fill="#7EBAE4"/>
<path fill-rule="evenodd" clip-rule="evenodd" d="M174.686 125.383L115.768 23.3228L142.845 23.0688L158.574 50.4887L174.416 23.2154L187.869 23.2207L194.76 35.1249L172.19 73.9338L188.212 101.815L174.686 125.383Z" fill="#7EBAE4"/>
<path fill-rule="evenodd" clip-rule="evenodd" d="M80.3087 130.56L139.227 232.621L112.15 232.875L96.4205 205.455L80.5786 232.728L67.1253 232.723L60.2349 220.818L82.8048 182.01L66.783 154.129L80.3087 130.56Z" fill="#5277C3"/>
<path fill-rule="evenodd" clip-rule="evenodd" d="M148.742 85.5839L30.8965 85.5781L44.2147 62.0022L75.8259 62.0898L60.1275 34.7337L66.8588 23.0855L80.6134 23.0703L102.938 62.0209L135.094 62.0861L148.742 85.5839Z" fill="#5277C3"/>
<path fill-rule="evenodd" clip-rule="evenodd" d="M153.34 167.401L212.268 65.3467L226.027 88.6686L210.145 116.001L241.685 116.084L248.407 127.737L241.543 139.657L196.649 139.515L180.514 167.331L153.34 167.401Z" fill="#5277C3"/>
<path fill-rule="evenodd" clip-rule="evenodd" d="M80.3785 130.495L139.297 232.555L112.22 232.809L96.4904 205.389L80.6484 232.663L67.1951 232.657L60.3047 220.753L82.8747 181.944L66.8529 154.063L80.3785 130.495Z" fill="url(#paint0_linear_2410_666)"/>
<path fill-rule="evenodd" clip-rule="evenodd" d="M101.644 88.4543L42.7159 190.509L28.9577 167.187L44.8391 139.855L13.2988 139.772L6.57672 128.118L13.4409 116.199L58.3353 116.341L74.47 88.525L101.644 88.4543Z" fill="url(#paint1_linear_2410_666)"/>
<path fill-rule="evenodd" clip-rule="evenodd" d="M106.165 170.035L224.011 170.041L210.693 193.617L179.081 193.53L194.78 220.886L188.049 232.534L174.294 232.549L151.97 193.599L119.813 193.533L106.165 170.035Z" fill="url(#paint2_linear_2410_666)"/>
<path fill-rule="evenodd" clip-rule="evenodd" d="M174.755 125.318L115.837 23.2574L142.913 23.0034L158.643 50.4232L174.485 23.1499L187.938 23.1552L194.829 35.0595L172.259 73.8683L188.28 101.749L174.755 125.318Z" fill="url(#paint3_linear_2410_666)"/>
<path fill-rule="evenodd" clip-rule="evenodd" d="M80.3785 130.495L139.297 232.555L112.22 232.809L96.4904 205.389L80.6484 232.663L67.1951 232.657L60.3047 220.753L82.8747 181.944L66.8529 154.063L80.3785 130.495Z" fill="url(#paint4_linear_2410_666)"/>
<path fill-rule="evenodd" clip-rule="evenodd" d="M148.725 85.5417L30.8789 85.5359L44.1971 61.96L75.8082 62.0476L60.1098 34.6915L66.8411 23.0432L80.5957 23.028L102.92 61.9786L135.077 62.0438L148.725 85.5417Z" fill="url(#paint5_linear_2410_666)"/>
<path fill-rule="evenodd" clip-rule="evenodd" d="M153.357 167.342L212.285 65.2869L226.043 88.6088L210.161 115.941L241.702 116.024L248.424 127.677L241.56 139.597L196.665 139.455L180.53 167.271L153.357 167.342Z" fill="url(#paint6_linear_2410_666)"/>
<defs>
<linearGradient id="paint0_linear_2410_666" x1="61.911" y1="133.7" x2="105.059" y2="208.327" gradientUnits="userSpaceOnUse">
<stop stop-color="#699AD7"/>
<stop offset="0.243452" stop-color="#7EB1DD"/>
<stop offset="1" stop-color="#7EBAE4"/>
</linearGradient>
<linearGradient id="paint1_linear_2410_666" x1="89.634" y1="74.0637" x2="46.5796" y2="148.745" gradientUnits="userSpaceOnUse">
<stop stop-color="#699AD7"/>
<stop offset="0.243452" stop-color="#7EB1DD"/>
<stop offset="1" stop-color="#7EBAE4"/>
</linearGradient>
<linearGradient id="paint2_linear_2410_666" x1="99.7072" y1="187.632" x2="185.91" y2="187.577" gradientUnits="userSpaceOnUse">
<stop stop-color="#699AD7"/>
<stop offset="0.243452" stop-color="#7EB1DD"/>
<stop offset="1" stop-color="#7EBAE4"/>
</linearGradient>
<linearGradient id="paint3_linear_2410_666" x1="193.222" y1="122.112" x2="150.074" y2="47.4857" gradientUnits="userSpaceOnUse">
<stop stop-color="#699AD7"/>
<stop offset="0.243452" stop-color="#7EB1DD"/>
<stop offset="1" stop-color="#7EBAE4"/>
</linearGradient>
<linearGradient id="paint4_linear_2410_666" x1="66.3708" y1="131.162" x2="108.753" y2="206.078" gradientUnits="userSpaceOnUse">
<stop stop-color="#415E9A"/>
<stop offset="0.231686" stop-color="#4A6BAF"/>
<stop offset="1" stop-color="#5277C3"/>
</linearGradient>
<linearGradient id="paint5_linear_2410_666" x1="155.151" y1="73.0771" x2="69.08" y2="72.3232" gradientUnits="userSpaceOnUse">
<stop stop-color="#415E9A"/>
<stop offset="0.231686" stop-color="#4A6BAF"/>
<stop offset="1" stop-color="#5277C3"/>
</linearGradient>
<linearGradient id="paint6_linear_2410_666" x1="160.938" y1="179.139" x2="204.627" y2="104.976" gradientUnits="userSpaceOnUse">
<stop stop-color="#415E9A"/>
<stop offset="0.231686" stop-color="#4A6BAF"/>
<stop offset="1" stop-color="#5277C3"/>
</linearGradient>
</defs>
</svg>
