<svg width="256" height="256" viewBox="0 0 256 256" fill="none" xmlns="http://www.w3.org/2000/svg">
<path d="M24 34C24 29.0294 28.0294 25 33 25H74C78.9706 25 83 29.0294 83 34V75C83 79.9706 78.9706 84 74 84H33C28.0294 84 24 79.9706 24 75V34Z" fill="#245C63"/>
<path d="M24 108C24 103.029 28.0294 99 33 99H74C78.9706 99 83 103.029 83 108V149C83 153.971 78.9706 158 74 158H33C28.0294 158 24 153.971 24 149V108Z" fill="#A38C0D"/>
<path d="M24 182C24 177.029 28.0294 173 33 173H74C78.9706 173 83 177.029 83 182V223C83 227.971 78.9706 232 74 232H33C28.0294 232 24 227.971 24 223V182Z" fill="#245C63"/>
<path d="M98 34C98 29.0294 102.029 25 107 25H148C152.971 25 157 29.0294 157 34V75C157 79.9706 152.971 84 148 84H107C102.029 84 98 79.9706 98 75V34Z" fill="#A38C0D"/>
<path d="M98 108C98 103.029 102.029 99 107 99H148C152.971 99 157 103.029 157 108V149C157 153.971 152.971 158 148 158H107C102.029 158 98 153.971 98 149V108Z" fill="#245C63"/>
<path d="M98 182C98 177.029 102.029 173 107 173H148C152.971 173 157 177.029 157 182V223C157 227.971 152.971 232 148 232H107C102.029 232 98 227.971 98 223V182Z" fill="#245C63"/>
<path d="M172 34C172 29.0294 176.029 25 181 25H222C226.971 25 231 29.0294 231 34V75C231 79.9706 226.971 84 222 84H181C176.029 84 172 79.9706 172 75V34Z" fill="#245C63"/>
<path d="M172 182C172 177.029 176.029 173 181 173H222C226.971 173 231 177.029 231 182V223C231 227.971 226.971 232 222 232H181C176.029 232 172 227.971 172 223V182Z" fill="#A38C0D"/>
<path d="M25 35C25 30.0294 29.0294 26 34 26H73C77.9706 26 82 30.0294 82 35V71C82 75.9706 77.9706 80 73 80H34C29.0294 80 25 75.9706 25 71V35Z" fill="#48B9C7"/>
<path d="M25 109C25 104.029 29.0294 100 34 100H73C77.9706 100 82 104.029 82 109V145C82 149.971 77.9706 154 73 154H34C29.0294 154 25 149.971 25 145V109Z" fill="#F7E062"/>
<path d="M25 183C25 178.029 29.0294 174 34 174H73C77.9706 174 82 178.029 82 183V219C82 223.971 77.9706 228 73 228H34C29.0294 228 25 223.971 25 219V183Z" fill="#94EBEB"/>
<path d="M99 35C99 30.0294 103.029 26 108 26H147C151.971 26 156 30.0294 156 35V71C156 75.9706 151.971 80 147 80H108C103.029 80 99 75.9706 99 71V35Z" fill="#F7E062"/>
<path d="M99 109C99 104.029 103.029 100 108 100H147C151.971 100 156 104.029 156 109V145C156 149.971 151.971 154 147 154H108C103.029 154 99 149.971 99 145V109Z" fill="#94EBEB"/>
<path d="M99 183C99 178.029 103.029 174 108 174H147C151.971 174 156 178.029 156 183V219C156 223.971 151.971 228 147 228H108C103.029 228 99 223.971 99 219V183Z" fill="#48B9C7"/>
<path d="M173 35C173 30.0294 177.029 26 182 26H221C225.971 26 230 30.0294 230 35V71C230 75.9706 225.971 80 221 80H182C177.029 80 173 75.9706 173 71V35Z" fill="#48B9C7"/>
<path d="M173 183C173 178.029 177.029 174 182 174H221C225.971 174 230 178.029 230 183V219C230 223.971 225.971 228 221 228H182C177.029 228 173 223.971 173 219V183Z" fill="#F7E062"/>
<path d="M172 108C172 103.029 176.029 99 181 99H222C226.971 99 231 103.029 231 108V149C231 153.971 226.971 158 222 158H181C176.029 158 172 153.971 172 149V108Z" fill="#966800"/>
<path d="M173 109C173 104.029 177.029 100 182 100H221C225.971 100 230 104.029 230 109V145C230 149.971 225.971 154 221 154H182C177.029 154 173 149.971 173 145V109Z" fill="#FFAD00"/>
</svg>
